<?xml version="1.0" encoding="UTF-8" standalone="no"?>
<!DOCTYPE svg PUBLIC "-//W3C//DTD SVG 1.1//EN"
 "http://www.w3.org/Graphics/SVG/1.1/DTD/svg11.dtd">
<!-- Generated by graphviz version 2.38.0 (20140413.2041)
 -->
<!-- Title: G Pages: 1 -->
<svg width="394pt" height="186pt"
 viewBox="0.00 0.00 393.79 186.00" xmlns="http://www.w3.org/2000/svg" xmlns:xlink="http://www.w3.org/1999/xlink">
<g id="graph0" class="graph" transform="scale(1 1) rotate(0) translate(4 182)">
<title>G</title>
<polygon fill="white" stroke="none" points="-4,4 -4,-182 389.788,-182 389.788,4 -4,4"/>
<g id="clust1" class="cluster"><title>cluster_Global</title>
<path fill="none" stroke="gray" d="M205.788,-8C205.788,-8 365.788,-8 365.788,-8 371.788,-8 377.788,-14 377.788,-20 377.788,-20 377.788,-158 377.788,-158 377.788,-164 371.788,-170 365.788,-170 365.788,-170 205.788,-170 205.788,-170 199.788,-170 193.788,-164 193.788,-158 193.788,-158 193.788,-20 193.788,-20 193.788,-14 199.788,-8 205.788,-8"/>
<text text-anchor="middle" x="285.788" y="-157.2" font-family="Times New Roman,serif" font-size="11.00" fill="gray">Global</text>
</g>
<g id="clust2" class="cluster"><title>cluster_\adamblake</title>
<path fill="none" stroke="gray" d="M213.788,-16C213.788,-16 357.788,-16 357.788,-16 363.788,-16 369.788,-22 369.788,-28 369.788,-28 369.788,-130 369.788,-130 369.788,-136 363.788,-142 357.788,-142 357.788,-142 213.788,-142 213.788,-142 207.788,-142 201.788,-136 201.788,-130 201.788,-130 201.788,-28 201.788,-28 201.788,-22 207.788,-16 213.788,-16"/>
<text text-anchor="middle" x="285.788" y="-129.2" font-family="Times New Roman,serif" font-size="11.00" fill="gray">adamblake</text>
</g>
<!-- \\adamblake\\ParseConfig -->
<g id="node1" class="node"><title>\\adamblake\\ParseConfig</title>
<polygon fill="none" stroke="black" points="331.288,-114 240.288,-114 240.288,-78 331.288,-78 331.288,-114"/>
<text text-anchor="middle" x="285.788" y="-93.2" font-family="Courier,monospace" font-size="11.00">ParseConfig</text>
</g>
<!-- \\adamblake\\ParseConfigException -->
<g id="node2" class="node"><title>\\adamblake\\ParseConfigException</title>
<polygon fill="none" stroke="black" points="361.788,-60 209.788,-60 209.788,-24 361.788,-24 361.788,-60"/>
<text text-anchor="middle" x="285.788" y="-39.2" font-family="Courier,monospace" font-size="11.00">ParseConfigException</text>
</g>
<!-- \\ErrorException -->
<g id="node3" class="node"><title>\\ErrorException</title>
<ellipse fill="none" stroke="black" cx="68.8939" cy="-42" rx="68.7879" ry="18"/>
<text text-anchor="middle" x="68.8939" y="-38.3" font-family="Times New Roman,serif" font-size="14.00" fill="gray">\ErrorException</text>
</g>
<!-- \\adamblake\\ParseConfigException&#45;&gt;\\ErrorException -->
<g id="edge1" class="edge"><title>\\adamblake\\ParseConfigException&#45;&gt;\\ErrorException</title>
<path fill="none" stroke="black" d="M209.628,-42C189.645,-42 168.019,-42 147.888,-42"/>
<polygon fill="none" stroke="black" points="147.828,-38.5001 137.828,-42 147.828,-45.5001 147.828,-38.5001"/>
</g>
</g>
</svg>
