<?xml version="1.0" encoding="UTF-8" standalone="no"?>
<!DOCTYPE svg PUBLIC "-//W3C//DTD SVG 1.1//EN"
 "http://www.w3.org/Graphics/SVG/1.1/DTD/svg11.dtd">
<!-- Generated by graphviz version 2.38.0 (20140413.2041)
 -->
<!-- Title: G Pages: 1 -->
<svg width="364pt" height="502pt"
 viewBox="0.00 0.00 363.89 502.00" xmlns="http://www.w3.org/2000/svg" xmlns:xlink="http://www.w3.org/1999/xlink">
<g id="graph0" class="graph" transform="scale(1 1) rotate(0) translate(4 498)">
<title>G</title>
<polygon fill="white" stroke="none" points="-4,4 -4,-498 359.894,-498 359.894,4 -4,4"/>
<g id="clust1" class="cluster"><title>cluster_Global</title>
<path fill="none" stroke="gray" d="M20,-44C20,-44 335.894,-44 335.894,-44 341.894,-44 347.894,-50 347.894,-56 347.894,-56 347.894,-474 347.894,-474 347.894,-480 341.894,-486 335.894,-486 335.894,-486 20,-486 20,-486 14,-486 8,-480 8,-474 8,-474 8,-56 8,-56 8,-50 14,-44 20,-44"/>
<text text-anchor="middle" x="177.947" y="-473.2" font-family="Times New Roman,serif" font-size="11.00" fill="gray">Global</text>
</g>
<g id="clust2" class="cluster"><title>cluster_\adamblake</title>
<path fill="none" stroke="gray" d="M28,-52C28,-52 327.894,-52 327.894,-52 333.894,-52 339.894,-58 339.894,-64 339.894,-64 339.894,-446 339.894,-446 339.894,-452 333.894,-458 327.894,-458 327.894,-458 28,-458 28,-458 22,-458 16,-452 16,-446 16,-446 16,-64 16,-64 16,-58 22,-52 28,-52"/>
<text text-anchor="middle" x="177.947" y="-445.2" font-family="Times New Roman,serif" font-size="11.00" fill="gray">adamblake</text>
</g>
<g id="clust3" class="cluster"><title>cluster_\adamblake\Parse</title>
<path fill="none" stroke="gray" d="M36,-60C36,-60 319.894,-60 319.894,-60 325.894,-60 331.894,-66 331.894,-72 331.894,-72 331.894,-418 331.894,-418 331.894,-424 325.894,-430 319.894,-430 319.894,-430 36,-430 36,-430 30,-430 24,-424 24,-418 24,-418 24,-72 24,-72 24,-66 30,-60 36,-60"/>
<text text-anchor="middle" x="177.947" y="-417.2" font-family="Times New Roman,serif" font-size="11.00" fill="gray">Parse</text>
</g>
<g id="clust4" class="cluster"><title>cluster_\adamblake\Parse\Parser</title>
<path fill="none" stroke="gray" d="M44,-168C44,-168 291.394,-168 291.394,-168 297.394,-168 303.394,-174 303.394,-180 303.394,-180 303.394,-390 303.394,-390 303.394,-396 297.394,-402 291.394,-402 291.394,-402 44,-402 44,-402 38,-402 32,-396 32,-390 32,-390 32,-180 32,-180 32,-174 38,-168 44,-168"/>
<text text-anchor="middle" x="167.697" y="-389.2" font-family="Times New Roman,serif" font-size="11.00" fill="gray">Parser</text>
</g>
<!-- \\adamblake\\Parse\\Parser\\Json -->
<g id="node1" class="node"><title>\\adamblake\\Parse\\Parser\\Json</title>
<polygon fill="none" stroke="black" points="295.394,-374 241.394,-374 241.394,-338 295.394,-338 295.394,-374"/>
<text text-anchor="middle" x="268.394" y="-353.2" font-family="Courier,monospace" font-size="11.00">Json</text>
</g>
<!-- \\adamblake\\Parse\\Parser\\IParser -->
<g id="node5" class="node"><title>\\adamblake\\Parse\\Parser\\IParser</title>
<polygon fill="none" stroke="black" points="104,-293 40,-293 40,-257 104,-257 104,-293"/>
<text text-anchor="middle" x="72" y="-272.2" font-family="Courier,monospace" font-size="11.00">IParser</text>
</g>
<!-- \\adamblake\\Parse\\Parser\\Json&#45;&gt;\\adamblake\\Parse\\Parser\\IParser -->
<g id="edge1" class="edge"><title>\\adamblake\\Parse\\Parser\\Json&#45;&gt;\\adamblake\\Parse\\Parser\\IParser</title>
<path fill="none" stroke="black" stroke-dasharray="1,5" d="M241.177,-345.076C208.407,-331.421 151.969,-307.905 113.596,-291.916"/>
<polygon fill="none" stroke="black" points="114.832,-288.639 104.255,-288.023 112.139,-295.1 114.832,-288.639"/>
</g>
<!-- \\adamblake\\Parse\\Parser\\Csv -->
<g id="node2" class="node"><title>\\adamblake\\Parse\\Parser\\Csv</title>
<polygon fill="none" stroke="black" points="295.394,-320 241.394,-320 241.394,-284 295.394,-284 295.394,-320"/>
<text text-anchor="middle" x="268.394" y="-299.2" font-family="Courier,monospace" font-size="11.00">Csv</text>
</g>
<!-- \\adamblake\\Parse\\Parser\\Csv&#45;&gt;\\adamblake\\Parse\\Parser\\IParser -->
<g id="edge2" class="edge"><title>\\adamblake\\Parse\\Parser\\Csv&#45;&gt;\\adamblake\\Parse\\Parser\\IParser</title>
<path fill="none" stroke="black" stroke-dasharray="1,5" d="M241.177,-298.359C208.685,-293.846 152.924,-286.101 114.575,-280.775"/>
<polygon fill="none" stroke="black" points="114.641,-277.25 104.255,-279.341 113.678,-284.184 114.641,-277.25"/>
</g>
<!-- \\adamblake\\Parse\\Parser\\Yaml -->
<g id="node3" class="node"><title>\\adamblake\\Parse\\Parser\\Yaml</title>
<polygon fill="none" stroke="black" points="295.394,-266 241.394,-266 241.394,-230 295.394,-230 295.394,-266"/>
<text text-anchor="middle" x="268.394" y="-245.2" font-family="Courier,monospace" font-size="11.00">Yaml</text>
</g>
<!-- \\adamblake\\Parse\\Parser\\Yaml&#45;&gt;\\adamblake\\Parse\\Parser\\IParser -->
<g id="edge4" class="edge"><title>\\adamblake\\Parse\\Parser\\Yaml&#45;&gt;\\adamblake\\Parse\\Parser\\IParser</title>
<path fill="none" stroke="black" stroke-dasharray="1,5" d="M241.177,-251.641C208.685,-256.154 152.924,-263.899 114.575,-269.225"/>
<polygon fill="none" stroke="black" points="113.678,-265.816 104.255,-270.659 114.641,-272.75 113.678,-265.816"/>
</g>
<!-- \\adamblake\\Parse\\Parser\\Ini -->
<g id="node4" class="node"><title>\\adamblake\\Parse\\Parser\\Ini</title>
<polygon fill="none" stroke="black" points="295.394,-212 241.394,-212 241.394,-176 295.394,-176 295.394,-212"/>
<text text-anchor="middle" x="268.394" y="-191.2" font-family="Courier,monospace" font-size="11.00">Ini</text>
</g>
<!-- \\adamblake\\Parse\\Parser\\Ini&#45;&gt;\\adamblake\\Parse\\Parser\\IParser -->
<g id="edge5" class="edge"><title>\\adamblake\\Parse\\Parser\\Ini&#45;&gt;\\adamblake\\Parse\\Parser\\IParser</title>
<path fill="none" stroke="black" stroke-dasharray="1,5" d="M241.177,-204.924C208.407,-218.579 151.969,-242.095 113.596,-258.084"/>
<polygon fill="none" stroke="black" points="112.139,-254.9 104.255,-261.977 114.832,-261.361 112.139,-254.9"/>
</g>
<!-- \\adamblake\\Parse\\Parse -->
<g id="node6" class="node"><title>\\adamblake\\Parse\\Parse</title>
<polygon fill="none" stroke="black" points="295.394,-158 241.394,-158 241.394,-122 295.394,-122 295.394,-158"/>
<text text-anchor="middle" x="268.394" y="-137.2" font-family="Courier,monospace" font-size="11.00">Parse</text>
</g>
<!-- \\adamblake\\Parse\\ParseException -->
<g id="node7" class="node"><title>\\adamblake\\Parse\\ParseException</title>
<polygon fill="none" stroke="black" points="323.894,-104 212.894,-104 212.894,-68 323.894,-68 323.894,-104"/>
<text text-anchor="middle" x="268.394" y="-83.2" font-family="Courier,monospace" font-size="11.00">ParseException</text>
</g>
<!-- \\ErrorException -->
<g id="node8" class="node"><title>\\ErrorException</title>
<ellipse fill="none" stroke="black" cx="72" cy="-18" rx="68.7879" ry="18"/>
<text text-anchor="middle" x="72" y="-14.3" font-family="Times New Roman,serif" font-size="14.00" fill="gray">\ErrorException</text>
</g>
<!-- \\adamblake\\Parse\\ParseException&#45;&gt;\\ErrorException -->
<g id="edge3" class="edge"><title>\\adamblake\\Parse\\ParseException&#45;&gt;\\ErrorException</title>
<path fill="none" stroke="black" d="M215.81,-67.9558C187.335,-57.9952 152.106,-45.6717 123.763,-35.757"/>
<polygon fill="none" stroke="black" points="124.642,-32.3566 114.047,-32.3584 122.33,-38.964 124.642,-32.3566"/>
</g>
</g>
</svg>
