<?xml version="1.0" encoding="UTF-8" standalone="no"?>
<!DOCTYPE svg PUBLIC "-//W3C//DTD SVG 1.1//EN"
 "http://www.w3.org/Graphics/SVG/1.1/DTD/svg11.dtd">
<!-- Generated by graphviz version 2.38.0 (20140413.2041)
 -->
<!-- Title: G Pages: 1 -->
<svg width="353pt" height="186pt"
 viewBox="0.00 0.00 352.79 186.00" xmlns="http://www.w3.org/2000/svg" xmlns:xlink="http://www.w3.org/1999/xlink">
<g id="graph0" class="graph" transform="scale(1 1) rotate(0) translate(4 182)">
<title>G</title>
<polygon fill="white" stroke="none" points="-4,4 -4,-182 348.788,-182 348.788,4 -4,4"/>
<g id="clust1" class="cluster"><title>cluster_Global</title>
<path fill="none" stroke="gray" d="M205.788,-8C205.788,-8 324.788,-8 324.788,-8 330.788,-8 336.788,-14 336.788,-20 336.788,-20 336.788,-158 336.788,-158 336.788,-164 330.788,-170 324.788,-170 324.788,-170 205.788,-170 205.788,-170 199.788,-170 193.788,-164 193.788,-158 193.788,-158 193.788,-20 193.788,-20 193.788,-14 199.788,-8 205.788,-8"/>
<text text-anchor="middle" x="265.288" y="-157.2" font-family="Times New Roman,serif" font-size="11.00" fill="gray">Global</text>
</g>
<g id="clust2" class="cluster"><title>cluster_\adamblake</title>
<path fill="none" stroke="gray" d="M213.788,-16C213.788,-16 316.788,-16 316.788,-16 322.788,-16 328.788,-22 328.788,-28 328.788,-28 328.788,-130 328.788,-130 328.788,-136 322.788,-142 316.788,-142 316.788,-142 213.788,-142 213.788,-142 207.788,-142 201.788,-136 201.788,-130 201.788,-130 201.788,-28 201.788,-28 201.788,-22 207.788,-16 213.788,-16"/>
<text text-anchor="middle" x="265.288" y="-129.2" font-family="Times New Roman,serif" font-size="11.00" fill="gray">adamblake</text>
</g>
<!-- \\adamblake\\Parse -->
<g id="node1" class="node"><title>\\adamblake\\Parse</title>
<polygon fill="none" stroke="black" points="292.288,-114 238.288,-114 238.288,-78 292.288,-78 292.288,-114"/>
<text text-anchor="middle" x="265.288" y="-93.2" font-family="Courier,monospace" font-size="11.00">Parse</text>
</g>
<!-- \\adamblake\\ParseException -->
<g id="node2" class="node"><title>\\adamblake\\ParseException</title>
<polygon fill="none" stroke="black" points="320.788,-60 209.788,-60 209.788,-24 320.788,-24 320.788,-60"/>
<text text-anchor="middle" x="265.288" y="-39.2" font-family="Courier,monospace" font-size="11.00">ParseException</text>
</g>
<!-- \\ErrorException -->
<g id="node3" class="node"><title>\\ErrorException</title>
<ellipse fill="none" stroke="black" cx="68.8939" cy="-42" rx="68.7879" ry="18"/>
<text text-anchor="middle" x="68.8939" y="-38.3" font-family="Times New Roman,serif" font-size="14.00" fill="gray">\ErrorException</text>
</g>
<!-- \\adamblake\\ParseException&#45;&gt;\\ErrorException -->
<g id="edge1" class="edge"><title>\\adamblake\\ParseException&#45;&gt;\\ErrorException</title>
<path fill="none" stroke="black" d="M209.621,-42C190.513,-42 168.673,-42 148.027,-42"/>
<polygon fill="none" stroke="black" points="148.005,-38.5001 138.005,-42 148.005,-45.5001 148.005,-38.5001"/>
</g>
</g>
</svg>
